<?xml version="1.0" standalone="no"?>
<!DOCTYPE svg PUBLIC "-//W3C//DTD SVG 20010904//EN"
 "http://www.w3.org/TR/2001/REC-SVG-20010904/DTD/svg10.dtd">
<svg version="1.0" xmlns="http://www.w3.org/2000/svg"
 width="70.000000pt" height="70.000000pt" viewBox="0 0 70.000000 70.000000"
 preserveAspectRatio="xMidYMid meet">
<metadata>
Created by potrace 1.14, written by Peter Selinger 2001-2017
</metadata>
<g transform="translate(0.000000,70.000000) scale(0.100000,-0.100000)"
fill="#000000" stroke="none">
<path d="M288 629 c-49 -42 -61 -75 -32 -86 8 -3 25 4 40 17 l24 23 0 -54 c0
-62 16 -94 43 -83 14 5 17 19 17 72 l0 65 23 -21 c13 -12 29 -22 36 -22 9 0
10 -9 5 -32 -5 -18 -9 -53 -9 -78 l0 -45 62 -20 c39 -12 61 -25 58 -32 -2 -6
0 -26 5 -43 l9 -31 -56 31 c-59 33 -83 33 -83 0 0 -14 15 -29 50 -48 53 -29
62 -42 30 -42 -10 0 -25 -6 -32 -14 -11 -11 -20 -8 -58 23 -65 54 -73 55 -122
14 -24 -19 -46 -40 -50 -47 -6 -8 -10 -8 -16 1 -4 6 -21 17 -37 23 l-29 11 44
25 c56 31 74 52 59 71 -16 18 -21 17 -80 -18 l-52 -30 7 32 c3 17 2 37 -4 44
-8 9 -2 14 22 18 18 3 50 13 71 21 35 15 37 19 36 59 -1 61 -22 112 -45 112
-16 0 -19 -7 -18 -37 1 -21 0 -38 -2 -38 -2 0 -26 12 -52 27 -49 27 -82 27
-82 -1 0 -8 26 -30 57 -49 l57 -35 -34 -9 c-26 -7 -35 -15 -35 -30 -1 -11 -6
-27 -12 -34 -6 -8 -17 -42 -24 -76 -16 -76 -11 -83 71 -108 48 -15 62 -16 75
-5 12 10 15 10 15 -4 0 -20 33 -21 50 -1 22 27 34 11 35 -45 0 -39 4 -56 18
-64 26 -16 37 7 37 78 l0 59 23 -21 c24 -23 57 -30 57 -12 0 5 12 7 28 4 32
-6 122 26 136 49 13 20 -8 128 -28 142 -7 6 -13 21 -12 34 1 18 -6 26 -32 35
l-33 11 53 31 c29 16 54 37 56 47 6 30 -28 32 -79 4 -26 -15 -49 -27 -52 -27
-3 0 -3 16 0 36 5 30 3 36 -16 41 -13 3 -20 11 -17 19 6 15 -93 104 -115 104
-8 -1 -35 -19 -61 -41z"/>
<path d="M310 409 c-24 -15 -30 -25 -30 -54 0 -22 8 -43 20 -55 47 -47 124
-15 122 50 -2 62 -58 91 -112 59z"/>
</g>
</svg>
